PathFileType	4	(X/Y/Z)	C:\Users\Basilio\Documents\Thesis Gigler\squatting_fais\c3dfiles\054\SLS_front_pre5\markers_experimental.trc
DataRate	CameraRate	NumFrames	NumMarkers	Units	OrigDataRate	OrigDataStartFrame	OrigNumFrames
200.000000	200.000000	4	61	mm	200.000000	353	1413
Frame#	Time	FHD			LBHD			RBHD			C7			T10			CLAV			LSHO			LUUPA			LMUPA			LDUPA			LLEP			LMEP			LRAD			LUL			LRFIN			RSHO			RUPA1			RMUPA			RDUPA			RLEP			RMEP			RRAD			RUL			RUFIN			LASI			RASI			USACR			LSACR			RSACR			LTHI1			LTHI2			LTHI3			LTHI4			LLFC			LMFC			LTIB1			LTIB2			LTIB3			LTIB4			LLMAL			LMMAL			LHEE			LMT1			LMT2			LMT5			RTHI			RTHI2			RTHI3			RTHI4			RLFC			RMFC			RTIB1			RTIB2			RTIB3			RTIB4			RLMAL			RMMAL			RHEE			RMT1			RMT2			RMT5			
		X1	Y1	Z1	X2	Y2	Z2	X3	Y3	Z3	X4	Y4	Z4	X5	Y5	Z5	X6	Y6	Z6	X7	Y7	Z7	X8	Y8	Z8	X9	Y9	Z9	X10	Y10	Z10	X11	Y11	Z11	X12	Y12	Z12	X13	Y13	Z13	X14	Y14	Z14	X15	Y15	Z15	X16	Y16	Z16	X17	Y17	Z17	X18	Y18	Z18	X19	Y19	Z19	X20	Y20	Z20	X21	Y21	Z21	X22	Y22	Z22	X23	Y23	Z23	X24	Y24	Z24	X25	Y25	Z25	X26	Y26	Z26	X27	Y27	Z27	X28	Y28	Z28	X29	Y29	Z29	X30	Y30	Z30	X31	Y31	Z31	X32	Y32	Z32	X33	Y33	Z33	X34	Y34	Z34	X35	Y35	Z35	X36	Y36	Z36	X37	Y37	Z37	X38	Y38	Z38	X39	Y39	Z39	X40	Y40	Z40	X41	Y41	Z41	X42	Y42	Z42	X43	Y43	Z43	X44	Y44	Z44	X45	Y45	Z45	X46	Y46	Z46	X47	Y47	Z47	X48	Y48	Z48	X49	Y49	Z49	X50	Y50	Z50	X51	Y51	Z51	X52	Y52	Z52	X53	Y53	Z53	X54	Y54	Z54	X55	Y55	Z55	X56	Y56	Z56	X57	Y57	Z57	X58	Y58	Z58	X59	Y59	Z59	X60	Y60	Z60	X61	Y61	Z61	

354	1.765	-231.2401733398438	1796.0458984375	-1119.317138671875	-390.8453674316407	1735.599487304688	-1188.120727539063	-408.2933959960939	1738.593139648438	-1048.765258789063	-432.5325622558595	1565.1923828125	-1097.782470703125	-446.1443481445314	1234.002685546875	-1080.74658203125	-284.9971008300782	1515.160400390625	-1105.216430664063	-366.2364196777344	1559.123413085938	-1254.884521484375	-222.1798553466797	1431.574951171875	-1383.1875	-188.2449493408203	1465.78857421875	-1373.835327148438	-154.5526885986328	1421.401245117188	-1396.648315429688	-97.37995910644534	1423.624877929688	-1398.785766601563	-95.48268127441408	1359.89453125	-1351.384033203125	162.7299346923828	1442.88427734375	-1333.49072265625	174.4515838623047	1408.005859375	-1402.460327148438	253.1342163085938	1459.135864257813	-1355.508911132813	-351.8224792480469	1571.570190429688	-957.447937011719	-189.9770202636719	1468.51025390625	-829.2165527343752	-155.6697998046875	1499.825927734375	-842.5839843750002	-121.4423446655274	1454.315795898438	-818.950622558594	-77.59253692626955	1450.050537109375	-821.4033813476565	-81.12889862060548	1391.048217773438	-869.624694824219	189.034652709961	1493.448608398438	-918.4555664062502	189.0203857421875	1458.556396484375	-846.1536254882815	268.1957397460938	1514.979370117188	-901.8430786132815	-243.7785339355469	1065.718383789063	-1180.772705078125	-254.5408172607422	1108.687377929688	-932.9180908203127	-441.9184570312501	1141.94775390625	-1066.923706054688	-442.1127929687501	1106.396362304688	-1089.079833984375	-445.9705505371095	1113.443359375	-1032.984008789063	-323.2953491210938	811.667663574219	-1229.904296875	-285.9052734375001	734.6313476562501	-1224.065673828125	-239.2567901611329	741.8914794921876	-1223.926635742188	-309.9196166992188	682.4547729492189	-1200.8466796875	-300.3457641601563	531.0830688476564	-1167.417602539063	-253.9802551269532	539.3001098632814	-1036.556640625	-256.5567932128907	370.7428588867188	-1103.130737304688	-312.5739135742188	320.2766113281251	-1150.784912109375	-271.6605224609376	319.3422241210938	-1128.473999023438	-276.1981506347657	246.8233337402344	-1085.172119140625	-339.5372009277344	111.689193725586	-1102.743041992188	-305.1610412597657	138.0492706298828	-1016.681274414063	-408.1120605468751	106.7662200927735	-1040.235595703125	-198.3116912841797	58.55447387695314	-1020.835815429688	-189.3895263671875	53.03615570068361	-1069.647216796875	-242.3673706054688	36.33581542968751	-1119.343872070313	-158.3800659179688	847.8941040039065	-832.899841308594	-94.8562469482422	832.3018798828127	-843.8939208984377	-72.51838684082033	853.0469970703127	-855.8187255859377	-65.80754852294923	753.7809448242189	-852.9981079101565	-18.11687469482422	673.2941284179689	-854.2625122070315	2.355285167694092	692.8012084960939	-988.658630371094	85.93026733398439	612.7285766601564	-863.7109375000002	71.50626373291017	515.8493652343751	-821.4817504882815	112.319580078125	534.3064575195314	-834.789001464844	150.7509460449219	499.271209716797	-860.0712890625002	202.9069519042969	323.2782897949219	-828.830505371094	226.3271636962891	348.5575256347657	-916.715515136719	172.9149932861328	256.3836059570313	-882.1343994140627	371.4607849121094	356.8816833496094	-896.503356933594	368.9264831542969	369.9259033203126	-850.2612915039065	335.7467651367188	333.4803161621094	-799.592956542969	
355	1.77	-231.3600158691407	1795.985473632813	-1119.234741210938	-391.0267028808595	1735.494140625	-1188.04638671875	-408.5736694335939	1738.513793945313	-1048.651000976563	-432.713104248047	1565.1005859375	-1097.714599609375	-446.2274169921876	1233.840454101563	-1080.799926757813	-285.1748046875001	1515.033203125	-1105.143920898438	-366.3543701171876	1559.016845703125	-1254.80517578125	-222.2181701660157	1431.613647460938	-1383.135375976563	-188.261215209961	1465.926391601563	-1373.661499023438	-154.4774932861328	1421.64013671875	-1396.451049804688	-97.28479766845706	1423.963745117188	-1398.595336914063	-95.43691253662111	1360.152221679688	-1351.255737304688	162.5340118408203	1443.52978515625	-1332.960083007813	174.6525573730469	1408.54638671875	-1402.043090820313	253.2634582519532	1459.788208007813	-1354.91650390625	-351.9801940917969	1571.412231445313	-957.4143676757815	-190.0816192626953	1468.627075195313	-829.2382812500002	-155.72314453125	1499.95361328125	-842.537292480469	-121.446029663086	1454.273681640625	-818.968933105469	-77.63158416748048	1450.258666992188	-822.525573730469	-81.18999481201173	1391.17919921875	-869.6293945312502	189.1583709716797	1493.672973632813	-918.672546386719	188.8732299804688	1459.058227539063	-846.3479003906252	267.8055725097657	1515.47216796875	-902.320495605469	-243.8106231689454	1065.665283203125	-1180.8642578125	-254.5519409179688	1108.653198242188	-932.9387817382815	-442.0047302246095	1141.796508789063	-1066.908935546875	-442.3474121093751	1106.209350585938	-1089.063110351563	-445.9622802734376	1113.297607421875	-1032.957641601563	-323.2184448242188	811.507995605469	-1229.883178710938	-285.7328491210938	734.4585571289064	-1224.012573242188	-239.0626831054688	741.8168945312501	-1223.892700195313	-309.7236328125001	682.3339233398439	-1200.762573242188	-299.8962097167969	530.9281616210939	-1167.32177734375	-253.8572540283204	539.2559204101564	-1036.373779296875	-256.3901367187501	370.5602416992188	-1102.845825195313	-312.2553405761719	320.2184448242188	-1150.638793945313	-271.1224670410157	319.1049499511719	-1128.280395507813	-276.0566711425782	246.7678527832032	-1084.863037109375	-339.4745178222657	111.7376708984375	-1102.579467773438	-305.1545410156251	137.9332580566407	-1016.410095214844	-408.0310058593751	106.647689819336	-1040.186401367188	-198.2955474853516	58.36088943481447	-1020.777893066406	-189.3533477783203	52.99495697021486	-1069.559326171875	-242.4364013671876	36.47291946411134	-1119.28564453125	-158.1696014404297	847.6555786132815	-833.101257324219	-94.83415985107423	832.2624511718752	-844.0664672851565	-72.36911010742189	852.9521484375002	-856.0529785156252	-65.80608367919923	753.6807861328126	-853.230651855469	-18.00799751281739	673.1891479492189	-854.5942382812502	2.2818603515625	692.5777587890626	-989.0520019531252	86.06536102294923	612.7128295898439	-864.0825805664065	71.65498352050783	515.8488769531251	-821.8389892578127	112.4600982666016	534.5115966796876	-834.8035888671877	150.9789123535157	499.3119506835939	-860.5255126953127	203.1192474365235	323.3906250000001	-829.323669433594	226.5030822753907	348.6273498535157	-917.191101074219	173.2420959472657	256.4607238769532	-882.5251464843752	371.6433715820313	356.9416503906251	-897.0373535156252	369.2845764160157	369.9778442382813	-850.8650512695315	336.1897888183594	333.5692749023438	-800.1052246093752	
356	1.775	-231.5325164794922	1795.912719726563	-1119.122436523438	-391.1562500000001	1735.38525390625	-1187.991088867188	-408.7706604003907	1738.327026367188	-1048.5830078125	-432.9093017578126	1564.978271484375	-1097.6689453125	-446.2921752929689	1233.683471679688	-1080.853271484375	-285.2697143554688	1515.029418945313	-1105.079467773438	-366.4817199707032	1558.891357421875	-1254.67822265625	-222.1608276367188	1431.839111328125	-1382.97705078125	-188.1966705322266	1466.121826171875	-1373.4853515625	-154.4001159667969	1421.8310546875	-1396.251586914063	-97.17996215820315	1424.156860351563	-1398.319946289063	-95.27959442138673	1360.523315429688	-1351.076293945313	162.2474517822266	1444.263916015625	-1332.466552734375	174.8376159667969	1409.073608398438	-1401.587646484375	253.2597961425782	1460.2705078125	-1354.261108398438	-352.2115173339844	1571.253540039063	-957.3890380859377	-190.130844116211	1468.710815429688	-829.2216796875002	-155.8181762695313	1500.052612304688	-842.5652465820315	-121.7530059814453	1454.6728515625	-818.9922485351565	-77.7368850708008	1450.49853515625	-822.462585449219	-81.25439453125001	1391.372314453125	-869.5129394531252	189.055648803711	1494.005126953125	-918.8247070312502	188.7292633056641	1459.489135742188	-846.527770996094	267.6138916015626	1515.972534179688	-902.516052246094	-243.8370971679688	1065.565673828125	-1180.85595703125	-254.6053161621094	1108.617065429688	-932.9918212890627	-442.1368103027345	1141.6259765625	-1066.932006835938	-442.619842529297	1106.088623046875	-1089.034423828125	-445.9640197753907	1113.149780273438	-1032.969848632813	-323.0274353027344	811.3291625976565	-1229.870727539063	-285.5344848632813	734.2813720703126	-1224.029418945313	-238.5167236328126	741.5590209960939	-1223.692626953125	-309.3135986328126	682.3878784179689	-1200.7822265625	-299.4809875488282	530.7724609375001	-1167.296875	-253.4688415527344	539.0767822265626	-1036.386108398438	-256.1523742675782	370.4826049804688	-1102.616088867188	-311.8609619140626	320.0981445312501	-1150.384887695313	-270.6061401367188	319.1239624023438	-1128.12548828125	-275.9383544921876	246.5695343017579	-1084.582641601563	-339.3835144042969	111.7732543945313	-1102.451293945313	-305.3386535644532	137.7976379394532	-1016.0595703125	-408.0911560058595	106.7205886840821	-1039.96142578125	-198.2837829589844	58.24341201782228	-1020.673095703125	-189.3766326904297	53.14406585693361	-1069.564086914063	-242.3609313964844	36.48554229736329	-1119.220947265625	-158.1158905029297	847.5852661132815	-833.2678833007815	-94.77286529541017	832.1707763671877	-844.311218261719	-72.24110412597658	852.8928833007815	-856.2493286132815	-65.7757034301758	753.6638793945314	-853.500183105469	-17.87055015563965	673.1256713867189	-854.9107055664065	2.249046564102173	692.6430053710939	-989.3582763671877	86.24009704589845	612.6552734375001	-864.530944824219	71.79112243652345	515.8074340820314	-822.187683105469	112.6750030517578	534.5193481445314	-835.256286621094	151.112533569336	499.320281982422	-860.924011230469	203.317123413086	323.4103088378907	-829.7299804687502	226.6495513916016	348.6421508789063	-917.6624755859377	173.6294860839844	256.4669799804688	-882.9497070312502	371.9660644531251	357.0138549804688	-897.7758789062502	369.6229248046876	370.0109863281251	-851.4993896484377	336.5256958007813	333.7545776367188	-800.5008544921877	
357	1.78	-231.8482818603516	1795.787109375	-1118.86474609375	-391.2837219238282	1735.33740234375	-1187.94287109375	-408.8342590332032	1738.187744140625	-1048.576782226563	-433.0991821289064	1564.88134765625	-1097.570678710938	-446.3983154296876	1233.532470703125	-1080.857421875	-285.4457702636719	1514.886962890625	-1104.966186523438	-366.5603942871094	1558.804321289063	-1254.651611328125	-222.0309143066407	1431.820190429688	-1382.7578125	-188.6937713623047	1466.42724609375	-1373.352172851563	-154.3218841552735	1422.01416015625	-1396.081176757813	-97.055046081543	1424.306762695313	-1397.936157226563	-95.07067871093751	1360.837768554688	-1351.007568359375	162.3345336914063	1444.45166015625	-1331.945678710938	174.3577117919922	1409.72216796875	-1401.013427734375	253.2301788330079	1460.911254882813	-1353.624389648438	-352.3787841796876	1571.065673828125	-957.3618774414065	-190.1562805175782	1468.819702148438	-829.2229614257815	-155.9581909179688	1500.116821289063	-842.618347167969	-121.888412475586	1454.815185546875	-818.9310302734377	-77.85787200927736	1450.602294921875	-822.3894042968752	-81.29592895507814	1391.474365234375	-869.4953613281252	188.7682800292969	1494.346923828125	-918.9258422851565	188.6899719238282	1459.990600585938	-846.7222900390627	267.3687744140626	1516.459716796875	-902.8425903320315	-243.895492553711	1065.489379882813	-1180.924560546875	-254.6360168457032	1108.556274414063	-933.0960693359377	-442.261932373047	1141.433959960938	-1066.951416015625	-442.6555480957032	1105.915283203125	-1089.010864257813	-446.124237060547	1112.968994140625	-1032.993041992188	-322.8861083984376	811.1308593750002	-1229.78759765625	-285.3097534179688	734.1620483398439	-1223.948608398438	-238.7520904541016	741.6389160156251	-1223.7138671875	-309.5744934082032	682.2381591796876	-1200.495849609375	-298.8754882812501	530.7423095703126	-1167.294799804688	-253.3568572998047	539.0041503906251	-1036.211303710938	-255.8428039550782	370.5179748535157	-1102.428955078125	-311.5709533691407	320.0297851562501	-1150.216918945313	-270.4066162109376	319.0461730957032	-1127.810791015625	-275.8714904785157	246.4368438720704	-1084.239624023438	-339.2991638183594	111.8808364868164	-1102.310302734375	-305.3827209472657	137.7373504638672	-1015.847900390625	-408.1538696289064	106.6910705566407	-1039.803833007813	-198.3213958740235	58.09220123291017	-1020.560119628906	-189.3418273925782	53.1074676513672	-1069.486083984375	-242.7050018310547	36.69938278198243	-1119.27294921875	-158.0978088378907	847.5388793945315	-833.405700683594	-94.61547088623048	831.934997558594	-844.5579223632815	-72.24325561523439	852.8001098632815	-856.388610839844	-65.7445755004883	753.5767211914064	-853.7933349609377	-17.81846046447754	673.0897827148439	-855.1340332031252	2.225008249282837	692.4271850585939	-989.703063964844	86.36252593994142	612.7061767578126	-864.939392089844	72.03945922851564	515.8666381835939	-822.3177490234377	112.9718246459961	534.5227050781251	-835.832702636719	151.3097076416016	499.2850036621095	-861.3145751953127	203.6217803955079	323.3944702148438	-830.0692138671877	226.8907623291016	348.6929016113282	-918.0791015625002	173.7925567626953	256.4871215820313	-883.3648681640627	372.1817321777344	357.0082092285157	-898.3128662109377	369.9100036621094	370.3732910156251	-852.0376586914065	336.8575134277344	333.8226623535157	-801.078308105469	
